<?xml version="1.0" standalone="no"?>
<!DOCTYPE svg PUBLIC "-//W3C//DTD SVG 20010904//EN"
 "http://www.w3.org/TR/2001/REC-SVG-20010904/DTD/svg10.dtd">
<svg version="1.0" xmlns="http://www.w3.org/2000/svg"
 width="1076.000000pt" height="1076.000000pt" viewBox="0 0 1076.000000 1076.000000"
 preserveAspectRatio="xMidYMid meet">
<metadata>
Created by potrace 1.16, written by Peter Selinger 2001-2019
</metadata>
<g transform="translate(0.000000,1076.000000) scale(0.100000,-0.100000)"
fill="#fff" stroke="none">
<path d="M4905 10695 c-1020 -97 -1928 -446 -2731 -1047 -1114 -834 -1865
-2087 -2073 -3459 -105 -690 -72 -1421 95 -2099 192 -782 568 -1520 1102
-2160 128 -153 486 -510 642 -640 713 -593 1553 -993 2425 -1155 77 -14 148
-27 158 -29 16 -4 17 90 17 1860 l0 1864 -675 0 -675 0 0 775 0 775 675 0 675
0 0 653 c0 358 5 706 10 772 86 1013 660 1651 1620 1800 222 35 655 30 1050
-11 156 -16 494 -61 523 -70 16 -5 17 -45 17 -658 l0 -653 -417 -6 c-375 -5
-428 -8 -517 -27 -182 -39 -301 -103 -412 -223 -74 -80 -132 -189 -166 -312
-22 -78 -23 -97 -26 -672 l-3 -593 739 0 738 0 -101 -657 c-56 -362 -110 -711
-120 -776 l-18 -117 -618 0 -619 0 0 -1864 0 -1863 103 18 c1298 234 2451 930
3268 1974 542 693 913 1539 1054 2405 165 1019 44 2034 -358 2980 -125 296
-271 563 -472 865 -212 318 -430 580 -711 855 -767 749 -1736 1246 -2794 1434
-312 56 -456 67 -875 71 -275 3 -431 0 -530 -10z"/>
</g>
</svg>
